<?xml version="1.0" encoding="UTF-8"?>
<svg id="Ebene_1" xmlns="http://www.w3.org/2000/svg" version="1.1" viewBox="0 0 1179 1097">
  <!-- Generator: Adobe Illustrator 29.5.1, SVG Export Plug-In . SVG Version: 2.1.0 Build 141)  -->
  <path d="M664,969.5c-.0030642-.2183059,1.5683468-2.007938.9958433-2.4915527-1.1744088-.9920662-18.5387535,4.9719208-21.8107836,5.6766124-43.2136445,9.3068493-85.1342069,8.8688761-127.1765791-5.6809337-.4341379,36.2693228,10.2790678,60.8521766-35.4585382,63.0457987-33.7343713,1.6179348-142.4524099-14.337831-158.4346505-47.6652167-2.992977-6.2411837-4.4014661-23.900701-5.2756101-25.2226199-1.14155-1.726302-32.6698713-10.2163725-39.1946851-13.3070849-26.0031508-12.3173264-27.5450344-18.0918571-26.6944464-46.4044531,1.851481-61.6282291,24.2096916-144.4676339,55.257271-197.7427287,6.4950624-11.1449934,24.3516462-31.5706919,28.0217914-39.9782086,10.6563476-24.4114108,7.0192195-35.3476067,27.2645599-59.7354401,2.4576653-2.9605396,16.1416397-14.4970948,16.4061997-15.5976083.4389315-1.8258622-15.3088394-27.2652106-17.6393113-33.1576255-15.2572112-38.5766599-12.2217474-80.1511974-1.9728964-119.4507742,1.2305462-4.7185723,8.9795097-24.1654628,8.7150135-26.2580954-.3727086-2.9487837-5.86947-5.9096151-7.4347104-8.5985356-10.5277451-18.0855732-7.3771457-31.4052093.2552875-49.6077785,4.2481772-10.1314664,32.1732701-55.9981468,30.9570871-62.6856375-.2977472-1.6372384-18.4724185-20.9318382-21.590426-25.3285341-34.7277602-48.969542-39.7716531-148.6296928.3859712-195.2331972,12.5237792-14.5340271,28.9304668,6.6616378,39.3062158,16.5410103,26.184246,24.9315899,52.9626455,57.4463853,68.1321174,90.3796009,47.8704236-55.7823886,148.3523694-62.2858807,206.7178138-20.2295322,3.1773681,2.289514,19.0412475,18.8528566,20.252718,18.229512.6448049-.331775,5.2045586-10.7928994,6.5947287-12.9169952,13.3930575-20.4637812,66.260502-87.9117288,86.3506981-96.641,12.9059213-5.6076748,24.0106633,20.5985896,28.0740436,30.0562947,22.739018,52.9261128,23.2127039,115.3122244-8.1886941,164.8207519-3.2030311,5.0500093-23.6665457,28.2371829-23.7801527,30.1539469-.1699381,2.8671746,9.1433518,22.6846227,11.1078977,26.8862503,11.0160267,23.5602748,33.7639132,50.2472495,22.3951319,77.6826674-1.8200647,4.3922241-12.4401079,16.3607923-12.5030205,17.4315408-.0863565,1.4697551,9.2423006,23.0277512,10.4734879,27.5201924,12.1539082,44.3480164,13.4237446,86.9813944-6.9667468,129.0519997-1.7272907,3.5638261-13.6329926,20.7223576-13.375457,22.305062.2497672,1.5349628,18.5158841,17.6579406,21.8322082,22.152934,15.3779805,20.8435356,11.6793367,33.2353384,19.7715229,52.2284771,2.0178114,4.7359972,13.8533272,17.2630378,17.6522685,23.3477315,38.9203521,62.3380047,63.7634411,142.5727482,66.5542434,216.4457445.9069839,24.0080142-1.7370071,31.4206047-23.294966,42.659871-7.5895759,3.956834-41.9673655,12.8640791-43.2365801,14.7634199-.7062428,1.0568707-2.3261867,18.6441461-5.2519213,24.7431968-17.9241834,37.3651464-132.4177421,50.8343216-169.5521925,47.1691839-17.5762852-1.7347639-24.6417525-11.6140697-24.6417525-29.3582469,0-9.9944089.1402513-20.0079972,0-30ZM397,335c-7.8055006,14.818838-20.9245484,25.7727149-16.5028786,45.0027724,2.0699153,9.0021625,13.6633341,13.0703042,13.5884213,23.4910251-.0800042,11.1289662-13.748648,37.724779-16.0855427,54.5062025-.3012899.2990738-.8667957.6359464-1,1-.7315022,1.9992294-.6694445,3.9616882-1,6-.4932095,3.0412889-.8363194,4.7663335-1,8-.0168103.3321034.0091764.6670793,0,1-1.8252035,2.9054204-1.0336651,7.6170443-1,11,.0033148.3331015-.0107857.6673318,0,1-2.0602696,6.7515715.0552386,15.9742251,1,23,.0287472.3308387-.0361663.6711685,0,1,.5632731,55.2850747,52.3434198,78.5451334,72.0147692,123.9968679,12.6235946-22.8451283,23.5232493-47.7870621,43.9795323-64.9901043-.7443422,6.5516045-17.9618724,50.1119574-15.990147,51.9848059.7991755.7590989,17.16249-4.7517965,21.4645219-5.02388,26.7113684-1.68937,45.6231791,16.1103155,49.0371989,42.0263263-58.6003688-60.0700151-116.9383959,13.2142437-70.333292,75.3334009,2.3662927,3.1539917,14.8223458,14.1179321,14.8213922,15.1786693-.0009363,1.0414104-11.2288304,1.6501037-13.5384469,14.4500261-7.3706273,40.8481045,42.2203736,12.3089421,58.5525759,7.5519924,12.9132398-3.7611359,25.9221657-4.8910573,38.9918955-7.5081045,1.4040543-.281144,4.4765668.7082696,5.0215218-.5881705l-1.0215218-573.4118295c-21.4600484,15.5514889-33.2969614,42.9608546-36.8625263,68.6374737-.7422865,5.34541-.0264334,28.3976786-1.1411133,29.3541908-2.5144746,2.1576827-13.1809513-10.4203031-14.9587963-12.5292285-19.064813-22.6151698-28.7801256-52.0632099-23.0498535-81.4622186l-33.9877105,34.9997827v-15.5c0-26.745913-47.9062664-82.8148094-66.4911199-102.5088801-2.4506242-2.5968871-18.8623632-20.2588178-20.4963766-18.9909871-1.5309291,1.1878476-10.6459438,32.7555273-11.5053967,37.0069739-10.3924802,51.4083742-2.9645601,90.385375,30.5283733,130.4574132,3.7220701,4.4532061,20.6180457,18.8508648,20.9595759,23.1068858.5280945,6.5809164-19.6050143,45.0940468-23.995056,53.4285943ZM798.9874471,90.9997282l-35.4973796,36.9903394c-16.5135571,19.5367263-36.7423821,44.6318296-44.9484959,69.0515041-2.0595285,6.1287251-5.5531526,30.6710226-6.5466655,31.9650432-1.3573372,1.7678906-12.0619984-10.836085-13.9860246-12.5154969-6.0252458-5.2592163-22.5745198-19.3511504-30.2443392-18.3023991-11.9629597,1.6357842-64.4266196,44.1010941-65.7537771,55.4008557l.9837842,509.4160348c10.8088581-.0487025,21.4646852,1.1655028,31.9997741,3.5000671,16.9803131,3.762819,69.9400113,36.3365575,68.8923367.0819109-.4083522-14.1309753-13.9778742-16.8805745-13.8806844-18.0816557.097055-1.1994154,13.5255858-13.9812209,16.2227014-17.7772543,46.2317208-65.0684578-16.8735486-132.1933955-72.7345505-70.7346571,3.0384962-22.9406501,21.5939806-44.6350201,45.9550686-45.0116679,5.509499-.0851826,22.7679325,5.9411748,23.5387693,5.0170953,1.8164726-2.1775879-14.4270167-47.0677613-13.9756929-53.9992503,9.6255468,9.7057209,17.7023303,20.9688394,25.0072525,32.4802783,2.3821509,3.7539051,18.133463,36.4068914,19.9657095,35.5163958,1.2371637-.6012776,10.5312451-19.7704053,13.5943267-23.9173108,36.6878348-49.6692572,66.185356-56.9103915,61.470303-131.6294239-1.3345976-21.1492516-21.8249047-68.8720683-18.5772293-81.4768957,2.2760881-8.8339177,14.6324471-14.8372789,13.4648394-29.3503306-.8669931-10.7764929-22.856574-42.6352539-28.7939104-55.2664736-2.1464616-4.5664294-12.1452794-26.771416-12.1519378-29.9645855-.0060178-2.8859671,30.2298923-37.5894388,35.0134936-45.8867321,25.7345614-44.6373335,22.3248243-99.8191495.982328-145.5053909ZM578.9998913,153.0123029c-47.3052498,1.8229314-74.7753754,50.8107358-49.4840286,91.978105l5.2220103-23.7525349c6.9818182-27.2204741,25.523898-48.4416798,44.2620183-68.22557ZM609.9780788,210.9896179l41.5643201-41.0260307c-4.2849471-3.0595571-16.3089691-12.3120313-21.0733327-10.0395776-10.1220607,4.8279091-22.4883238,37.7520834-22.4509012,48.6113371.0040612,1.1784865-.2875036,3.8170426,1.9599138,2.4542712ZM438.4381406,788.5709677c-17.4512447-45.5325106-40.7728642-91.9535916-46.2927621-141.2163462-.6127516-5.4685492.3422243-39.9618676-1.6394857-40.3486126-1.1579418-.2259807-13.7574502,15.3532679-15.3163208,17.6835632-45.4138987,67.8874799-2.4363863,182.6197773,13.8054313,255.3029288-8.5922122-9.0858769-15.4291027-24.0203185-20.8499233-35.637581-19.6202788-42.0478643-32.8307869-87.2444242-38.6393206-133.3491164-26.3548527,46.1724486-41.7236895,100.0235984-49.3422547,152.6577012-1.0469396,7.2329533-6.41405,45.6497199-4.9821792,49.6585237,1.6914787,4.7356273,34.4944804,15.5260005,40.8126456,16.6759945,2.0449618-22.3995233,3.9066936-44.9397677,7.3263789-67.177673,1.5602345-10.1460642,4.1959662-30.8727529,7.4053639-39.6401561.5796559-1.5834986-.5025689-2.6651146,2.2679244-2.1739233,1.6949364,17.3951647.8818419,35.0505439,2.0292099,52.4708813,1.6165501,24.5438677,3.1392553,52.840584,5.9987219,77.0012781.5750147,4.8585126,1.2019779,15.7615979,3.5347179,19.4652821,6.595464,10.4715977,64.4572226,25.2985658,78.2369689,27.7630311,12.8230419,2.2933616,53.5560285,7.8499311,64.4778306,5.0643318,6.207823-1.5833017,3.0747059-22.4521515,2.7060656-28.2482279-4.1968823-65.9869614-28.3302393-125.3972468-51.5390125-185.9518793ZM793.005588,879.9931082l27.6699876-118.8175326c7.5504413-51.6171049,13.4144675-116.9069657-30.6634607-154.1751726,2.7083777,101.5154312-57.7638601,187.0729815-82.9303803,282.5813317-5.7071986,21.6591376-11.4317671,46.8540538-13.9442784,69.0557216-.8294283,7.3291977-3.8570071,36.6414769-1.9613289,41.6864156,1.4922811,3.9713843,16.3427209,2.8122916,20.3594192,2.7115673,21.5953942-.5415344,111.8262307-15.4094068,124.0236132-31.9762794,3.1044424-4.2165523,3.7775771-18.5605001,4.419583-24.580417,4.4001763-41.2592724,4.8726346-83.1148959,8.0341253-124.4782652,2.8246135-.3259682,1.5584626.1968037,1.9552851,1.5151337,6.7924554,22.5659988,11.0962766,64.774369,13.0092689,89.0069672.2348157,2.9744994-.563959,17.7652684.030175,18.4724347,1.523686,1.8135628,41.8095818-13.6415759,42.6900205-18.6058538-4.8194992-70.4688093-22.0987047-139.3944843-53.7128684-202.3801704-6.3135886,48.4190748-20.324231,95.2911824-41.1282295,139.347531-1.831447,3.8784308-13.5857284,28.8413947-14.7837718,30.0086062-.9378067.9136721-2.9188343.8371565-3.06716.6279822ZM574,785c-8.0803147-.5082097-24.6614301,2.5691944-32.778132,4.721868-4.7111007,1.249456-33.5669702,12.9046291-33.2731044,16.742533.9867918,12.8875575,63.8951015,35.8904387,70.0512364,29.535599,1.7748097-1.8320961,2.7258212-49.1220055,1.0060518-51.0058629-.1759726-.1927626-3.9045286.075143-5.0060518.0058629ZM672.9921455,806.021098c-1.388454-3.048897-31.1700257-14.9950941-36.2094571-16.3037865-5.0233365-1.3045127-29.9315595-6.0558137-33.1409825-4.5712905-2.7833858,1.2874591-1.2033342,43.7790041-1.4882937,49.6931953,9.4584843,7.5449432,74.7761244-20.1720274,70.8387333-28.8181183ZM577.9995384,949.987943l-76.98721-67.9877796c2.6065993,7.7612101,10.6647934,50.1897631,13.9033892,53.584119,6.6452566,6.9648597,51.8867565,14.1185242,63.0838208,14.4036606Z" fill="#0c232e"/>
  <path d="M1071.0081941,419.9787796c.3233681.7143758,10.6427375,5.6402747,13.454173,8.0588512,46.8896306,40.3374575,26.3587911,115.7507396-26.7704797,140.1542566-6.6527909,3.0557825-30.9877774,8.9624719-34.2381958,12.7618042-5.3614006,6.2668061-2.0204015,33.1015869-13.4595926,48.5404074-23.8307822,32.1630405-68.7459887,11.4843487-82.0542482,50.9457518l-4.4239312,23.5504482c-40.99229-31.4534938-77.193456-99.6334696-27.523202-140.4975814,11.0741288-9.1107736,27.7006463-11.2425792,28.5401129-28.428393.8403479-17.2038568-14.2464919-27.9031077-22.332896-40.7642589-25.7573925-40.9662582-12.0598907-93.1446618,34.2861691-110.3139622,4.9016373-1.8158541,21.6607057-4.2171951,22.5153737-4.991262.7906725-.7161065-5.6638746-12.9042564-6.2977522-15.1985665-18.5920901-67.2937824,61.4046999-110.8452949,112.7590278-68.7590278,30.6372945,25.1080953,36.0301642,68.3584993,19.3923543,103.3178599-1.8760074,3.941866-14.3763487,20.4540578-13.846913,21.6236725ZM1039,438c-4.9005925-.430802-21.6791339,4.5852549-21.9749657,3.5126052-.4613486-1.6727932,22.3287177-18.9619928,26.0005706-22.9870004,23.1206133-25.3443282,39.5067497-69.3638533,13.4835256-98.5347354-35.2452583-39.5083742-105.2079118-2.3249413-75.0438536,50.0438536,3.0382848,5.2748643,22.4007774,22.595712,21.531095,23.9509781-.4171813.6501128-12.1870318,3.7184553-14.6717159,4.8389546-2.953642,1.3319817-10.4287427,6.7920794-12.0430485,6.994757-2.9134037.3657806-12.8172783-2.2774633-18.8105877-1.8493391-28.9186167,2.0657634-46.861143,29.449275-43.0250347,57.0840041,4.0072823,28.8678404,32.1494641,36.4014341,34.4291758,71.5557565.5286124,8.1514738-3.5770836,15.9015848,9.1703564,2.9356832,9.5341019-9.6974943,12.5514527-22.8661217,12.0002423-36.0911568-.3389449-8.1322086-7.8724002-24.2142975,6.4595373-7.4596573,15.9361488,18.630031,11.290695,47.7549411-6.4989424,63.5116513-19.5518037,17.3175034-48.8137401,12.4017168-65.0004476,33.9995524-17.4597702,23.2964763-6.3793917,57.1077151,8.9818144,78.4934618,1.305233-17.3369549,16.0746172-32.1920399,31.9916885-37.5199589,13.4503675-4.5022396,32.0771521-3.0106236,42.5376115-14.4623885,10.9838641-12.0247709,5.2284226-26.2593825,9.1691391-39.8308609,6.7295857-23.1760968,40.9301878-24.0714491,58.843657-35.156343,40.7278699-25.2024949,42.2023052-95.965703-12.5298175-103.0298175-1.1736616-.1514811-2.8859604-2.4045497-5,0Z" fill="#0c232e"/>
  <path d="M253,689.5c-9.2530885-59.6762131-92.123712-15.1845167-92.0329804-95.035385.0071108-6.2580766,4.8093594-16.7451642-.0237878-21.9072978-2.1837661-2.3324123-31.5420325-9.06657-38.1436885-11.8568604-52.5156888-22.1965558-73.4897737-90.6420587-29.3253368-131.7262502,2.3056832-2.1448735,14.3369468-9.7115716,14.4695182-10.5985121.209544-1.4019093-12.2169453-19.124095-14.3982394-24.4211797-12.8162722-31.1232119-10.089129-66.278994,13.4808144-91.4327505,48.2388913-51.4803665,134.15488-15.0783759,124.7105412,55.7150641-.5333145,3.9976509-7.4164192,19.8984565-6.7368961,20.7518691.645667.8108928,16.1058019,3.875368,19.9791985,5.5321593,42.4453172,18.1553917,55.0891893,67.3985374,32.4414309,106.3997176-5.18909,8.9360116-14.352946,16.9327999-18.9338859,26.0661138-16.9875913,33.8692517,8.9572624,33.9022076,26.3950061,51.6316175,41.1979655,41.8870484,9.7584096,107.4159579-31.8816944,135.3816944-.4865438-4.509924.6706931-10.1744796,0-14.5ZM229,541v-17.5c0-30.1462491,57.3190988-51.6803319,27.4030558-100.4030558-5.3465552-8.7076601-23.1994903-22.3731793-33.6850867-18.9240629-4.2404179,1.3948367-4.9370165,16.3502351-8.218012,15.8026211-1.1145371-.1860216-4.8792752-14.7908584-9.9658358-20.0096237-4.9002101-5.0275713-17.8851598-9.1350552-18.5335552-9.9761528-.924824-1.1996804,16.0145204-17.9430587,18.4924321-23.9967274,19.3121216-47.1805288-34.7477387-81.8035159-73.4030272-52.4030272-31.3216353,23.8226494-22.3785564,73.375483,1.9454514,98.8746063l26.9575027,25.5297404c-45.8248618-12.0192261-77.7568206,25.8062212-60.0035071,69.516264,17.5327044,43.1668859,73.1796009,31.0605496,85.9900855,55.0099151,8.4528668,15.8027429-5.0746927,37.084387,4.0112348,51.9887645,10.4212005,17.0947332,49.2274002,8.1427407,66.8394043,34.1605958,8.7697865,12.955427,5.1427683,31.1483189,16.34714,3.0074261,7.3132596-18.3679782,10.6243293-37.9739483.8507984-56.2053645-17.5850359-32.802895-68.7343198-19.0173299-78.1713321-64.8285885-4.0238604-19.5335242,2.0481478-33.2003663,16.1590426-46.6338344,1.3903813,6.0182208-3.0158556,12.782179-3.0845873,19.4927447-.1376306,13.4374636,8.0039635,30.813838,20.0687955,37.4977594Z" fill="#0c232e"/>
  <path d="M1001.6033548,132.3944033c30.9437943,22.9489798,36.8140234,68.7661876,13.8001222,99.5093749-25.30355,33.8018214-84.7364476,38.1097265-85.4680695,85.6215292-.0315347,2.0478747,3.6009246,14.2242828.5807394,13.4647618-8.5144546-2.1412288-25.7832974-27.8849936-28.2398618-36.7663633-12.5233508-45.2764457,35.4004341-50.7108802,35.806438-76.7263236.2097531-13.4403171-10.6634806-17.361756-18.1085336-24.9586488-51.2383155-52.2833058,27.6501703-100.1770054,81.6291653-60.1443302ZM930,269c-1.4085055,2.4171424-3.1731449,4.3807737-3.9733117,7.5142221,1.3793186.7299325,2.3344594-1.7765834,2.9733117-2.5142221.1647838-.1902645-.1662431-.818805,0-1,.5996771-.6536121,1.3544512-1.3319776,2-2,27.1231973-28.0674396,81.6719918-40.027944,72.5558729-91.0548691-5.596876-31.3281757-53.5572488-56.9122166-71.3805967-29.2698808-17.3321724,26.880569,32.5282004,30.7161618,30.8533438,65.8601787-1.2235352,25.6738064-22.2485861,33.9649078-33.0286201,52.4645711Z" fill="#0c232e"/>
  <path d="M248.0050584,329.9925438c-.6744651-.6456771,3.2313142-14.012571,3.0034932-18.4309484-2.8174197-54.6412291-106.5116401-45.8189935-99.0379389-132.0909719,6.5375885-75.4660472,121.4007184-81.112949,124.9123239-20.820716,1.8530009,31.8149528-31.9675416,37.8422118-31.9448692,58.8497741.0206641,19.1467123,25.1923455,29.7605945,30.929947,47.1323041,4.9901298,15.108593,1.7973793,32.7866174-6.4427711,46.2932574-1.8482693,3.0295452-17.956245,22.3833899-21.4201849,19.0673006ZM245.6294159,258.3708852c-14.150605-16.9021465-31.0065239-27.6918651-24.1843853-54.4253635,5.0616332-19.8347133,46.1818979-33.8527332,23.0899735-55.9805265-29.1818536-27.9634565-89.1125116,18.778507-59.9557908,67.9557914,12.5635947,21.1904306,37.7341909,29.2633776,55.8832171,44.116783,3.3070555,2.7065383,11.7445101,13.4864831,12.5598762,13.9514123,7.5245749,4.290582-6.6039579-14.6757584-7.3928907-15.6180967Z" fill="#0c232e"/>
  <path d="M798.9874471,90.9997282c21.3424963,45.6862414,24.7522334,100.8680574-.982328,145.5053909-4.7836013,8.2972933-35.0195114,43.000765-35.0134936,45.8867321.0066583,3.1931695,10.0054762,25.3981561,12.1519378,29.9645855,5.9373364,12.6312196,27.9269174,44.4899806,28.7939104,55.2664736,1.1676076,14.5130518-11.1887513,20.5164129-13.4648394,29.3503306-3.2476755,12.6048274,17.2426316,60.3276441,18.5772293,81.4768957,4.715053,74.7190325-24.7824682,81.9601667-61.470303,131.6294239-3.0630815,4.1469055-12.357163,23.3160332-13.5943267,23.9173108-1.8322466.8904956-17.5835587-31.7624907-19.9657095-35.5163958-7.3049221-11.5114389-15.3817057-22.7745573-25.0072525-32.4802783-.4513238,6.931489,15.7921655,51.8216624,13.9756929,53.9992503-.7708369.9240795-18.0292703-5.1022779-23.5387693-5.0170953-24.361088.3766478-42.9165724,22.0710178-45.9550686,45.0116679,55.8610019-61.4587384,118.9662712,5.6661993,72.7345505,70.7346571-2.6971157,3.7960334-16.1256464,16.5778389-16.2227014,17.7772543-.0971898,1.2010812,13.4723322,3.9506804,13.8806844,18.0816557,1.0476746,36.2546465-51.9120236,3.6809081-68.8923367-.0819109-10.5350889-2.3345643-21.190916-3.5487696-31.9997741-3.5000671l-.9837842-509.4160348c1.3271574-11.2997617,53.7908173-53.7650715,65.7537771-55.4008557,7.6698194-1.0487513,24.2190934,13.0431828,30.2443392,18.3023991,1.9240262,1.6794119,12.6286874,14.2833875,13.9860246,12.5154969.9935129-1.2940205,4.487137-25.8363181,6.5466655-31.9650432,8.2061138-24.4196745,28.4349388-49.5147778,44.9484959-69.0515041l35.4973796-36.9903394ZM792.9881269,130.0001524c-27.3437527,32.4182434-71.3047938,75.680157-51.864865,122.3765857.7325528,1.7596567,8.5101008,14.5405842,9.3755641,14.6020071,1.9130035.135768,22.0965771-26.1591533,24.3169232-29.662996,20.3042041-32.0412822,25.0223753-70.3840029,18.1723776-107.3155968ZM716.9852621,292.0030365c-4.1176142-2.1246485-20.2479161,47.5186312-20.0512087,54.4900291.8684322,30.7776236,42.7895888,34.1731898,40.0978284-5.0247802-.4527061-6.5923996-16.260571-47.5116849-20.0466197-49.4652489ZM777.991503,382.0209058c-2.651402-6.0745203-25.856032-5.9252568-31.9542781-4.4835707-27.2045552,6.4314278-58.3306765,59.1659303-86.0182351,32.9436751-20.0039329-18.9452686-9.8040767-49.4387066-13.1315152-70.8717439-.5702654-3.6732519-.9155489-4.8473452-3.3389246-1.5603323-11.8272998,16.0422861-16.2500768,58.8987035-9.7599073,77.6624234,3.0600234,8.8468294,19.7014289,26.2297515,19.9984302,27.929522.1791306,1.0251841-2.5690985,9.9923408-2.7623199,12.8839611-2.2167469,33.174327-2.0100391,64.8034071,4.9832769,97.4790902l11.9981361-80.9978655c3.8202629,2.4316226,5.6514691,7.8658167,8.9693646,11.5184123,9.8287319,10.8202271,21.04454,17.1654462,36.0186112,17.468866l-25.9881643-25.9868135c43.4654784,10.4982775,72.6769731-19.0562318,76.9644923-60.5360603.5649593-5.4657286-1.1991654-21.4758523.1717747-24.8282253,1.1398424-2.7872675,15.5656448-4.6889952,13.8492586-8.6213386ZM760.0128495,466.000609c-1.7545067,1.2462272-17.822214,35.1900255-18.7881373,38.7241029-13.4264498,49.1240981,41.1780906,49.1260324,39.8237725,8.7358255-.1821758-5.4330808-16.4370389-50.7263143-21.0356352-47.4599285ZM643.008745,729.9965022c3.0653516,2.5844779,14.2715673-31.3971308,34.9829504-23.4848663,10.1992239,3.8963577,6.2748349,16.8005886,18.5176096,2.4976467,28.6285968-33.4461074-26.2847185-66.9302728-48.6728315-23.6728092-3.9539842,7.6397385-11.1677857,39.3145611-4.8277284,44.6600288Z" fill="#e73720"/>
  <path d="M378,459h-1c.1332043-.3640536.6987101-.7009262,1-1-.0455546.3271309.042288.6723681,0,1Z" fill="#01b1e3"/>
  <path d="M397,335c4.3900417-8.3345476,24.5231505-46.8476779,23.995056-53.4285943-.3415301-4.2560209-17.2375058-18.6536796-20.9595759-23.1068858-33.4929334-40.0720382-40.9208535-79.049039-30.5283733-130.4574132.8594529-4.2514466,9.9744676-35.8191263,11.5053967-37.0069739,1.6340135-1.2678308,18.0457524,16.3940999,20.4963766,18.9909871,18.5848536,19.6940707,66.4911199,75.762967,66.4911199,102.5088801v15.5l33.9877105-34.9997827c-5.7302721,29.3990087,3.9850405,58.8470489,23.0498535,81.4622186,1.777845,2.1089254,12.4443217,14.6869111,14.9587963,12.5292285,1.1146799-.9565121.3988269-24.0087808,1.1411133-29.3541908,3.5655649-25.6766191,15.4024779-53.0859847,36.8625263-68.6374737l.0483439,569.5484143c4.0334902,3.7481184-9.6098716,3.1881081-4.0483439,4.4515857-13.0697298,2.6170472-26.0786557,3.7469686-38.9918955,7.5081045-16.3322023,4.7569497-65.9232033,33.2961121-58.5525759-7.5519924,2.3096165-12.7999224,13.5375107-13.4086157,13.5384469-14.4500261.0009536-1.0607371-12.4550995-12.0246776-14.8213922-15.1786693-46.6051039-62.1191572,11.7329232-135.403416,70.333292-75.3334009-3.4140198-25.9160108-22.3258305-43.7156963-49.0371989-42.0263263-4.3020319.2720835-20.6653464,5.7829789-21.4645219,5.02388-1.9717254-1.8728484,15.2458048-45.4332013,15.990147-51.9848059-20.4562829,17.2030422-31.3559377,42.144976-43.9795323,64.9901043-19.6713494-45.4517345-71.4514961-68.7117932-72.0147692-123.9968679.0613742.5580269,1.1515684,5.802422,1.9876846,5.9938816,1.1306448-3.2443891-.9876846-8.1607384-.9876846-10.4938816v-29c0-3.9460823,1.4151844-12.9690654,2-17.5,2.2906607-2.9642097-.5342352-5.9201185,3.5073986-2.0070323,2.7703805,2.6822662,30.9095222,39.7559259,31.7324403,42.2671934,2.923024,8.9200798-1.5285807,22.0232079,1.9008854,31.0991146,2.5153134,6.6566483,21.3861882,21.0588259,26.8239859,28.1760141,4.4077429,5.7690148,6.7138434,21.7565025,19.3993389,13.3271665,19.0380927-12.6505488-26.4348276-35.153374-29.9148251-46.8116803-2.24516-7.5214891-.2362289-20.7137251-1.5428235-28.4571765-.6378237-3.7800222-36.4324527-50.9522856-39.9291055-53.0684562-1.7809644-1.0778377-5.6564124-.2222441-5.9838519-.5262536-2.0489716-1.9023572,11.637097-31.9904247,11.7706228-38.4915501.3005356-14.6325222-14.7456754-16.7289043-14.7255796-32.0070906.0060916-4.6312326,7.395225-24.8979376,11.6599837-26.3025525,1.9820632-.6528002,38.6794946.3272995,41.7267272.8771063,14.4724782,2.6112441,44.7417457,45.7922306,58.8401223,50.1607308,20.2919243,6.2876229,25.9174627-20.9709611,11.7807627-23.7951817-10.4158372-2.0808691-8.5783573,4.4760633-10.0601719,5.5601648-3.3531583,2.4531842-42.0480508-41.7958379-47.9346517-43.5517753-11.7688448-3.510575-36.8390549,1.6958647-50.0512585-.4487415ZM428,266c1.4615007,2.1335534,4.0738519,8.7006773,7.4908777,13.0091679,10.7318878,13.5317203,45.0518338,41.3514969,50.964019,53.0359354,3.1543805,6.2341019-.3720736,17.8354258,8.288072,19.7843805,7.8818599,1.7738025,8.1413643-6.4857825,8.3291521-12.3327482.2021109-6.2929276-1.1545265-50.2666433-2.5889828-52.4798082-4.2479777-6.5540336-15.7713462-5.9678888-16.5668368,4.4713637-.1534487,2.013713,3.2057315,20.3543471-.3998612,19.5014882-1.7976533-.4252129-19.8290759-24.560999-23.4909562-28.5152631-7.2272041-7.8042623-15.7074749-17.3181195-25.0254839-21.4745161,29.8359283-52.0965834-17.1712235-94.2193106-46.9879329-131.9996142-1.6021294,25.3782346-2.8120198,51.346562,4.496046,75.9915012,6.3329207,21.3564643,22.8900633,42.6114991,35.491887,61.008113ZM530,460c-.3098521-5.4130633-3.2287681-11.7380519-1.7638582-17.272546.6789667-2.5651661,11.0798027-13.4099688,13.6387232-18.352589,13.9073623-26.8624253,4.7053795-57.1582333-2.8886111-84.3673881-2.4018606,23.0012749,3.1029405,69.4634117-26.2118901,78.2679204-31.6627427,9.509688-53.9570382-40.0031522-88.1133965-40.8664919-3.1017319-.0783997-23.942348,3.3699603-25.664321,4.5984964-2.9194118,2.0828448,17.2148295,8.0173647,17.8226163,9.1680501,1.1512453,2.1795821-.2598619,20.5689723.2102664,25.2950192,3.6706147,36.8995017,27.775389,63.6873403,66.454045,60.5130358,2.4052272-.1973937,12.0373456-3.402358,12.5153976-2.9720821,2.7754918,2.4981114-22.0159844,26.2738249-25.99872,26.9763195,20.6140953-.1301996,33.9735263-14.5202977,44.9874412-29.9871259l10.0123073,81.9993816,1.988017,1.004489c4.4228771-27.3185789,7.4643181-56.7214222,5.9892893-84.4811969-.071204-1.3400468-.3110673-10.1454752-2.9773063-9.5232921ZM536.978869,730.9906233c8.2327893-4.1155771.1051703-38.6365762-4.1627767-46.3067156-23.4480832-42.1397139-74.3773317-7.8465198-50.3199728,22.3199735,13.2677615,16.6369817,12.8803402,1.4426036,20.7635333-1.2419583,8.9674656-3.0538027,18.8354192,3.4841846,24.2474463,10.230978,2.3241403,2.8973422,7.4605496,16.0031328,9.47177,14.9977224Z" fill="#01b1e3"/>
  <path d="M438.4381406,788.5709677c23.2087732,60.5546325,47.3421302,119.9649179,51.5390125,185.9518793.3686403,5.7960764,3.5017573,26.6649262-2.7060656,28.2482279-10.9218021,2.7855994-51.6547887-2.7709701-64.4778306-5.0643318-13.7797464-2.4644653-71.6415049-17.2914334-78.2369689-27.7630311-2.3327401-3.7036842-2.9597032-14.6067694-3.5347179-19.4652821-2.8594666-24.1606941-4.3821718-52.4574105-5.9987219-77.0012781-1.147368-17.4203374-.3342735-35.0757166-2.0292099-52.4708813-2.7704933-.4911913-1.6882685.5904248-2.2679244,2.1739233-3.2093978,8.7674031-5.8451295,29.4940919-7.4053639,39.6401561-3.4196853,22.2379053-5.2814171,44.7781498-7.3263789,67.177673-6.3181651-1.149994-39.1211669-11.9403672-40.8126456-16.6759945-1.4318708-4.0088038,3.9352396-42.4255705,4.9821792-49.6585237,7.6185652-52.6341028,22.9874021-106.4852526,49.3422547-152.6577012,5.8085337,46.1046922,19.0190418,91.3012521,38.6393206,133.3491164,5.4208206,11.6172625,12.2577111,26.551704,20.8499233,35.637581-16.2418176-72.6831515-59.21933-187.4154489-13.8054313-255.3029288,1.5588706-2.3302953,14.158379-17.9095439,15.3163208-17.6835632,1.98171.386745,1.026734,34.8800634,1.6394857,40.3486126,5.5198978,49.2627546,28.8415174,95.6838356,46.2927621,141.2163462Z" fill="#fcfcfc"/>
  <path d="M793.005588,879.9931082c.1483256.2091743,2.1293532.2856899,3.06716-.6279822,1.1980435-1.1672116,12.9523248-26.1301754,14.7837718-30.0086062,20.8039985-44.0563485,34.8146409-90.9284562,41.1282295-139.347531,31.6141637,62.9856861,48.8933692,131.9113611,53.7128684,202.3801704-.8804388,4.9642778-41.1663345,20.4194166-42.6900205,18.6058538-.594134-.7071663.2046407-15.4979353-.030175-18.4724347-1.9129923-24.2325982-6.2168135-66.4409684-13.0092689-89.0069672-.3968226-1.31833.8693283-1.8411018-1.9552851-1.5151337-3.1614907,41.3633693-3.633949,83.2189929-8.0341253,124.4782652-.6420059,6.019917-1.3151406,20.3638648-4.419583,24.580417-12.1973826,16.5668726-102.428219,31.434745-124.0236132,31.9762794-4.0166983.1007243-18.8671381,1.2598169-20.3594192-2.7115673-1.8956782-5.0449387,1.1319005-34.3572179,1.9613289-41.6864156,2.5125113-22.2016678,8.2370798-47.396584,13.9442784-69.0557216,25.1665202-95.5083502,85.6387579-181.0659005,82.9303803-282.5813317,44.0779282,37.2682069,38.213902,102.5580678,30.6634607,154.1751726l-27.6699876,118.8175326Z" fill="#fcfcfc"/>
  <path d="M397,335c13.2122036,2.1446062,38.2824137-3.0618335,50.0512585.4487415,5.8866009,1.7559373,44.5814934,46.0049594,47.9346517,43.5517753,1.4818146-1.0841015-.3556654-7.6410339,10.0601719-5.5601648,14.1367,2.8242206,8.5111616,30.0828046-11.7807627,23.7951817-14.0983766-4.3685002-44.3676441-47.5494867-58.8401223-50.1607308-3.0472326-.5498069-39.744664-1.5299066-41.7267272-.8771063-4.2647587,1.4046149-11.6538921,21.6713199-11.6599837,26.3025525-.0200958,15.2781863,15.0261152,17.3745684,14.7255796,32.0070906-.1335258,6.5011255-13.8195944,36.5891929-11.7706228,38.4915501.3274395.3040095,4.2028876-.5515841,5.9838519.5262536,3.4966528,2.1161705,39.2912818,49.288434,39.9291055,53.0684562,1.3065946,7.7434513-.7023365,20.9356874,1.5428235,28.4571765,3.4799975,11.6583063,48.9529178,34.1611315,29.9148251,46.8116803-12.6854954,8.429336-14.991596-7.5581517-19.3993389-13.3271665-5.4377977-7.1171882-24.3086725-21.5193658-26.8239859-28.1760141-3.4294661-9.0759067,1.0221386-22.1790348-1.9008854-31.0991146-.8229181-2.5112675-28.9620598-39.5849272-31.7324403-42.2671934-4.0416337-3.9130862-1.2167378-.9571774-3.5073986,2.0070323.042288-.3276319-.0455546-.6728691,0-1,2.3368948-16.7814235,16.0055385-43.3772363,16.0855427-54.5062025.0749128-10.4207209-11.518506-14.4888626-13.5884213-23.4910251-4.4216698-19.2300575,8.697378-30.1839344,16.5028786-45.0027724Z" fill="#3fcdef"/>
  <path d="M378,459c-.5848156,4.5309346-2,13.5539177-2,17.5v29c0,2.3331432,2.1183294,7.2494925.9876846,10.4938816-.8361161-.1914597-1.9263103-5.4358548-1.9876846-5.9938816-.0361663-.3288315.0287472-.6691613,0-1-.6182685-7.1153884-.7644998-15.7363444-1-23-.0107857-.3326682.0033148-.6668985,0-1,1.9213206-2.9678963.9046578-7.5409634,1-11,.0091764-.3329207-.0168103-.6678966,0-1l1-8c.3305555-2.0383118.2684978-4.0007706,1-6h1Z" fill="#3fcdef"/>
  <path d="M574,785c.7231086,1.5864271,3.5263338.3034944,4.0702473,1.5759457,2.7233831,6.3711833-2.2023519,40.0936429-.0702473,49.4240543-6.1561349,6.3548396-69.0644446-16.6480415-70.0512364-29.535599-.2938658-3.8379039,28.5620037-15.4930771,33.2731044-16.742533,8.116702-2.1526735,24.6978174-5.2300777,32.778132-4.721868Z" fill="#01b1e3"/>
  <path d="M672.9921455,806.021098c3.9373911,8.6460909-61.380249,36.3630615-70.8387333,28.8181183.2849595-5.9141911-1.2950921-48.4057362,1.4882937-49.6931953,3.2094231-1.4845232,28.1176461,3.2667778,33.1409825,4.5712905,5.0394314,1.3086924,34.821003,13.2548894,36.2094571,16.3037865Z" fill="#e73720"/>
  <path d="M577.9995384,949.987943c-11.1970642-.2851364-56.4385642-7.4388009-63.0838208-14.4036606-3.2385959-3.3943559-11.2967899-45.8229089-13.9033892-53.584119l76.98721,67.9877796Z" fill="#01b1e3"/>
  <path d="M578.9998913,153.0123029c-18.7381203,19.7838902-37.2802,41.0050959-44.2620183,68.22557l-5.2220103,23.7525349c-25.2913469-41.1673691,2.1787787-90.1551735,49.4840286-91.978105Z" fill="#01b1e3"/>
  <path d="M609.9780788,210.9896179c-2.2474174,1.3627714-1.9558526-1.2757848-1.9599138-2.4542712-.0374225-10.8592537,12.3288405-43.7834279,22.4509012-48.6113371,4.7643636-2.2724537,16.7883856,6.9800205,21.0733327,10.0395776l-41.5643201,41.0260307Z" fill="#e73720"/>
  <path d="M578,189l1.0215218,573.4118295c-.544955,1.2964401-3.6174675.3070265-5.0215218.5881705-5.5615277-1.2634776,8.0818341-.7034673,4.0483439-4.4515857l-.0483439-569.5484143Z" fill="#3fcdef"/>
  <path d="M574,785c1.1015232.0692801,4.8300792-.1986256,5.0060518-.0058629,1.7197694,1.8838574.7687579,49.1737668-1.0060518,51.0058629-2.1321046-9.3304114,2.7936304-43.052871.0702473-49.4240543-.5439135-1.2724513-3.3471386.0104815-4.0702473-1.5759457Z" fill="#3fcdef"/>
  <path d="M375,509c-.9447614-7.0257749-3.0602696-16.2484285-1-23,.2355002,7.2636556.3817315,15.8846116,1,23Z" fill="#01b1e3"/>
  <path d="M374,485c-.0336651-3.3829557-.8252035-8.0945796,1-11-.0953422,3.4590366.9213206,8.0321037-1,11Z" fill="#01b1e3"/>
  <path d="M375,473c.1636806-3.2336665.5067905-4.9587111,1-8l-1,8Z" fill="#01b1e3"/>
  <path d="M1039,438c.2933357.0257866,3.6762788,2.7077538,5,0,54.7321227,7.0641146,53.2576874,77.8273227,12.5298175,103.0298175-17.9134692,11.0848939-52.1140713,11.9802462-58.843657,35.156343-3.9407165,13.5714784,1.814725,27.80609-9.1691391,39.8308609-10.4604595,11.4517648-29.087244,9.9601489-42.5376115,14.4623885-15.9170713,5.327919-30.6864555,20.183004-31.9916885,37.5199589-15.3612061-21.3857467-26.4415846-55.1969855-8.9818144-78.4934618,16.1867075-21.5978356,45.4486438-16.682049,65.0004476-33.9995524,17.7896374-15.7567102,22.4350911-44.8816203,6.4989424-63.5116513-14.3319375-16.7546402-6.7984822-.6725513-6.4595373,7.4596573.5512104,13.2250351-2.4661404,26.3936625-12.0002423,36.0911568-12.74744,12.9659016-8.641744,5.2157906-9.1703564-2.9356832-2.2797117-35.1543224-30.4218935-42.6879161-34.4291758-71.5557565-3.8361082-27.6347291,14.106418-55.0182407,43.0250347-57.0840041,5.9933094-.4281242,15.8971839,2.2151197,18.8105877,1.8493391,1.6143058-.2026776,9.0894065-5.6627753,12.0430485-6.994757,2.4846841-1.1204993,14.2545347-4.1888418,14.6717159-4.8389546.8696824-1.3552661-18.4928102-18.6761138-21.531095-23.9509781-30.1640582-52.3687949,39.7985952-89.5522278,75.0438536-50.0438536,26.0232241,29.1708821,9.6370877,73.1904072-13.4835256,98.5347354-3.6718529,4.0250076-26.4619192,21.3142071-26.0005706,22.9870004.2958318,1.0726497,17.0743732-3.9434073,21.9749657-3.5126052Z" fill="#fcfcfc"/>
  <path d="M1044,438c-1.3237212,2.7077538-4.7066643.0257866-5,0,2.1140396-2.4045497,3.8263384-.1514811,5,0Z" fill="#3fcdef"/>
  <path d="M229,541c-12.064832-6.6839213-20.2064261-24.0602958-20.0687955-37.4977594.0687317-6.7105657,4.4749686-13.4745239,3.0845873-19.4927447-14.1108948,13.4334681-20.182903,27.1003102-16.1590426,46.6338344,9.4370123,45.8112586,60.5862962,32.0256935,78.1713321,64.8285885,9.7735309,18.2314162,6.4624612,37.8373863-.8507984,56.2053645-11.2043717,28.1408928-7.5773535,9.948001-16.34714-3.0074261-17.6120041-26.0178551-56.4182038-17.0658626-66.8394043-34.1605958-9.0859275-14.9043775,4.441632-36.1860216-4.0112348-51.9887645-12.8104847-23.9493655-68.4573811-11.8430292-85.9900855-55.0099151-17.7533135-43.7100428,14.1786453-81.5354901,60.0035071-69.516264l-26.9575027-25.5297404c-24.3240078-25.4991233-33.2670868-75.0519569-1.9454514-98.8746063,38.6552885-29.4004887,92.7151488,5.2224985,73.4030272,52.4030272-2.4779117,6.0536687-19.4172561,22.797047-18.4924321,23.9967274.6483954.8410976,13.6333451,4.9485814,18.5335552,9.9761528,5.0865606,5.2187653,8.8512986,19.8236021,9.9658358,20.0096237,3.2809955.547614,3.977594-14.4077844,8.218012-15.8026211,10.4855964-3.4491164,28.3385315,10.2164029,33.6850867,18.9240629,29.916043,48.722724-27.4030558,70.2568067-27.4030558,100.4030558v17.5Z" fill="#fcfcfc"/>
  <path d="M931,271l-1-2c10.780034-18.4996633,31.8050848-26.7907647,33.0286201-52.4645711,1.6748566-35.1440169-48.1855163-38.9796097-30.8533438-65.8601787,17.8233478-27.6423359,65.7837206-2.0582949,71.3805967,29.2698808,9.1161189,51.0269251-45.4326756,62.9874295-72.5558729,91.0548691Z" fill="#fcfcfc"/>
  <path d="M931,271c-.6455488.6680224-1.4003229,1.3463879-2,2v1c-.6388523.7376387-1.5939931,3.2441545-2.9733117,2.5142221.8001668-3.1334484,2.5648062-5.0970797,3.9733117-7.5142221l1,2Z" fill="#3fcdef"/>
  <path d="M929,274v-1c-.1662431.181195.1647838.8097355,0,1Z" fill="#fcfcfc"/>
  <path d="M245.6294159,258.3708852c.7889328.9423383,14.9174656,19.9086787,7.3928907,15.6180967-.8153661-.4649292-9.2528207-11.244874-12.5598762-13.9514123-18.1490262-14.8534053-43.3196224-22.9263523-55.8832171-44.116783-29.1567209-49.1772844,30.7739372-95.919248,59.9557908-67.9557914,23.0919244,22.1277933-18.0283403,36.1458132-23.0899735,55.9805265-6.8221386,26.7334984,10.0337803,37.5232169,24.1843853,54.4253635Z" fill="#fcfcfc"/>
  <path d="M777.991503,382.0209058c1.7163862,3.9323434-12.7094162,5.8340711-13.8492586,8.6213386-1.3709402,3.352373.3931846,19.3624967-.1717747,24.8282253-4.2875192,41.4798286-33.4990139,71.0343378-76.9644923,60.5360603l25.9881643,25.9868135c-14.9740712-.3034198-26.1898793-6.6486389-36.0186112-17.468866-3.3178955-3.6525956-5.1491017-9.0867897-8.9693646-11.5184123l-11.9981361,80.9978655c-6.993316-32.6756831-7.2000238-64.3047632-4.9832769-97.4790902.1932214-2.8916203,2.9414506-11.858777,2.7623199-12.8839611-.2970012-1.6997705-16.9384068-19.0826925-19.9984302-27.929522-6.4901695-18.7637199-2.0673925-61.6201373,9.7599073-77.6624234,2.4233757-3.2870129,2.7686593-2.1129196,3.3389246,1.5603323,3.3274384,21.4330373-6.8724177,51.9264754,13.1315152,70.8717439,27.6875586,26.2222552,58.8136799-26.5122473,86.0182351-32.9436751,6.0982462-1.4416861,29.3028762-1.5909496,31.9542781,4.4835707ZM743.9937415,404.0059223c-4.9345331,3.2227797-15.1688309,9.5861625-18.4208157,14.0670035-6.5057552,8.9641422-2.1350353,27.416863-19.1663267,29.8254405-13.0466218,1.8450626-16.4967945-6.2901126-21.9368854-6.9051067-.845328-.0955631-10.5892449,2.0040412-10.4533422,3.4841504.2605747,2.8379054,9.3618177,9.5787306,12.0462402,10.9599784,34.0960543,17.5438474,63.0410576-19.0764227,57.9311298-51.4314661Z" fill="#0c232e"/>
  <path d="M792.9881269,130.0001524c6.8499977,36.9315939,2.1318265,75.2743146-18.1723776,107.3155968-2.2203461,3.5038427-22.4039197,29.798764-24.3169232,29.662996-.8654633-.0614229-8.6430113-12.8423504-9.3755641-14.6020071-19.4399288-46.6964287,24.5211123-89.9583423,51.864865-122.3765857Z" fill="#0c232e"/>
  <path d="M643.008745,729.9965022c-6.3400573-5.3454677.8737442-37.0202903,4.8277284-44.6600288,22.388113-43.2574636,77.3014284-9.7732982,48.6728315,23.6728092-12.2427747,14.3029419-8.3183857,1.398711-18.5176096-2.4976467-20.7113831-7.9122645-31.9175988,26.0693443-34.9829504,23.4848663Z" fill="#0c232e"/>
  <path d="M760.0128495,466.000609c4.5985963-3.2663858,20.8534594,42.0268477,21.0356352,47.4599285,1.354318,40.3902068-53.2502224,40.3882726-39.8237725-8.7358255.9659233-3.5340774,17.0336307-37.4778758,18.7881373-38.7241029ZM761.5002283,494.0242735c-4.4235279-.4490811-16.1463991,34.6419017-1.8305743,34.7071959,12.6405729.0576534,5.6800119-34.3163971,1.8305743-34.7071959Z" fill="#0c232e"/>
  <path d="M716.9852621,292.0030365c3.7860486,1.9535639,19.5939136,42.8728492,20.0466197,49.4652489,2.6917604,39.19797-39.2293962,35.8024038-40.0978284,5.0247802-.1967074-6.9713979,15.9335945-56.6146776,20.0512087-54.4900291ZM716.0152594,321.0089526c-4.3591308,6.2787551-11.2850078,37.1658871,1.4834733,37.0905544,11.4027859-.0672753,6.2685289-31.8882189-1.4834733-37.0905544Z" fill="#0c232e"/>
  <path d="M530,460c1.7847434,31.1791644.9455407,62.2768082-5,93l-10.0123073-81.9993816c-11.0139149,15.4668282-24.3733459,29.8569264-44.9874412,29.9871259,3.9827356-.7024946,28.7742118-24.4782081,25.99872-26.9763195-.4780521-.4302759-10.1101705,2.7746884-12.5153976,2.9720821-38.6786561,3.1743045-62.7834303-23.6135341-66.454045-60.5130358-.4701282-4.7260469.9409789-23.1154371-.2102664-25.2950192-.6077868-1.1506854-20.7420281-7.0852053-17.8226163-9.1680501,1.721973-1.228536,22.5625891-4.6768961,25.664321-4.5984964,34.1563582.8633397,56.4506537,50.3761799,88.1133965,40.8664919,29.3148307-8.8045087,23.8100295-55.2666455,26.2118901-78.2679204,7.5939906,27.2091547,16.7959734,57.5049628,2.8886111,84.3673881-2.5589205,4.9426202-12.9597564,15.7874229-13.6387232,18.352589-1.4649099,5.5344941,1.4540061,11.8594827,1.7638582,17.272546ZM508.9998225,443.0118541c-16.7881032-6.5601883-22.0478289,10.8137809-39.6635366,3.1517657-12.5622289-5.4639865-8.3412844-20.2627496-12.8660918-28.1338139-.9909359-1.7237684-19.0918448-15.6537113-20.4640659-14.0235284-2.9301886,3.4810305,3.5154563,26.7242462,5.8203855,31.6672088,13.1864768,28.2786391,49.3142104,33.6668629,67.1733088,7.3383679Z" fill="#0c232e"/>
  <path d="M435,261c-1.5474224,2.7019579-4.4899754,10.2279247-7,5-12.6018236-18.396614-29.1589662-39.6516488-35.491887-61.008113-7.3080658-24.6449391-6.0981754-50.6132665-4.496046-75.9915012,29.8167095,37.7803036,76.8238613,79.9030308,46.9879329,131.9996142Z" fill="#0c232e"/>
  <path d="M536.978869,730.9906233c-2.0112204,1.0054105-7.1476297-12.1003802-9.47177-14.9977224-5.412027-6.7467934-15.2799807-13.2847807-24.2474463-10.230978-7.8831931,2.6845619-7.4957718,17.8789399-20.7635333,1.2419583-24.0573589-30.1664933,26.8718896-64.4596874,50.3199728-22.3199735,4.267947,7.6701394,12.395566,42.1911385,4.1627767,46.3067156Z" fill="#0c232e"/>
  <path d="M435,261c9.318009,4.1563966,17.7982798,13.6702538,25.0254839,21.4745161,3.6618803,3.9542641,21.6933029,28.0900502,23.4909562,28.5152631,3.6055927.8528588.2464125-17.4877752.3998612-19.5014882.7954906-10.4392525,12.318859-11.0253972,16.5668368-4.4713637,1.4344564,2.2131649,2.7910937,46.1868805,2.5889828,52.4798082-.1877879,5.8469658-.4472922,14.1065507-8.3291521,12.3327482-8.6601456-1.9489547-5.1336915-13.5502786-8.288072-19.7843805-5.9121852-11.6844385-40.2321313-39.5042151-50.964019-53.0359354-3.4170258-4.3084906-6.0293771-10.8756145-7.4908777-13.0091679,2.5100246,5.2279247,5.4525776-2.2980421,7-5Z" fill="#3fcdef"/>
  <path d="M530,460c2.6662391-.6221831,2.9061023,8.1832453,2.9773063,9.5232921,1.4750288,27.7597747-1.5664122,57.1626181-5.9892893,84.4811969l-1.988017-1.004489c5.9455407-30.7231918,6.7847434-61.8208356,5-93Z" fill="#3fcdef"/>
  <path d="M743.9937415,404.0059223c5.1099278,32.3550434-23.8350755,68.9753135-57.9311298,51.4314661-2.6844225-1.3812478-11.7856654-8.122073-12.0462402-10.9599784-.1359027-1.4801092,9.6080142-3.5797135,10.4533422-3.4841504,5.4400909.6149941,8.8902636,8.7501693,21.9368854,6.9051067,17.0312914-2.4085775,12.6605714-20.8612983,19.1663267-29.8254405,3.2519848-4.480841,13.4862827-10.8442238,18.4208157-14.0670035Z" fill="#fcfcfc"/>
  <path d="M761.5002283,494.0242735c3.8494375.3907989,10.8099986,34.7648494-1.8305743,34.7071959-14.3158248-.0652942-2.5929536-35.156277,1.8305743-34.7071959Z" fill="#fcfcfc"/>
  <path d="M716.0152594,321.0089526c7.7520022,5.2023355,12.8862592,37.0232792,1.4834733,37.0905544-12.7684811.0753327-5.842604-30.8117994-1.4834733-37.0905544Z" fill="#fcfcfc"/>
  <path d="M508.9998225,443.0118541c-17.8590984,26.3284951-53.9868319,20.9402712-67.1733088-7.3383679-2.3049292-4.9429626-8.7505742-28.1861783-5.8203855-31.6672088,1.372221-1.6301829,19.47313,12.2997601,20.4640659,14.0235284,4.5248074,7.8710642.3038629,22.6698274,12.8660918,28.1338139,17.6157078,7.6620152,22.8754334-9.711954,39.6635366-3.1517657Z" fill="#fcfcfc"/>
</svg>